<svg xmlns="http://www.w3.org/2000/svg" xmlns:xlink="http://www.w3.org/1999/xlink" width="900"
  zoomAndPan="magnify" viewBox="0 0 445 200" height="300" preserveAspectRatio="xMidYMid meet"
  version="1.0">
  <defs>
    <g />
  </defs>
  <g fill="#5e17eb" fill-opacity="1">
    <g transform="translate(0, 191.874618)">
      <g>
        <path
          d="M 60.0625 -117.390625 L 60.0625 -124.078125 C 60.0625 -128.210938 58.988281 -131.753906 56.84375 -134.703125 C 54.695312 -137.648438 51.472656 -139.125 47.171875 -139.125 C 45.179688 -139.125 43.191406 -138.625 41.203125 -137.625 C 39.210938 -136.632812 37.554688 -135.039062 36.234375 -132.84375 C 34.921875 -130.65625 34.265625 -127.734375 34.265625 -124.078125 C 34.265625 -120.328125 35 -117.117188 36.46875 -114.453125 C 37.945312 -111.785156 40.019531 -109.296875 42.6875 -106.984375 C 45.351562 -104.679688 48.441406 -102.140625 51.953125 -99.359375 C 57.523438 -95.054688 62.738281 -90.875 67.59375 -86.8125 C 72.445312 -82.75 76.703125 -78.445312 80.359375 -73.90625 C 84.023438 -69.375 86.890625 -64.28125 88.953125 -58.625 C 91.023438 -52.976562 92.0625 -46.375 92.0625 -38.8125 C 92.0625 -33.238281 91.003906 -27.960938 88.890625 -22.984375 C 86.785156 -18.015625 83.800781 -13.597656 79.9375 -9.734375 C 76.082031 -5.867188 71.445312 -2.84375 66.03125 -0.65625 C 60.625 1.53125 54.613281 2.625 48 2.625 C 40.832031 2.625 34.539062 1.453125 29.125 -0.890625 C 23.71875 -3.242188 19.203125 -6.410156 15.578125 -10.390625 C 11.960938 -14.367188 9.257812 -18.945312 7.46875 -24.125 C 5.675781 -29.300781 4.78125 -34.675781 4.78125 -40.25 L 4.78125 -46.578125 C 4.78125 -48.640625 5.035156 -50.109375 5.546875 -50.984375 C 6.066406 -51.859375 7.164062 -52.296875 8.84375 -52.296875 L 30.578125 -52.296875 C 32.242188 -52.296875 33.332031 -51.9375 33.84375 -51.21875 C 34.363281 -50.507812 34.625 -49.238281 34.625 -47.40625 L 34.625 -42.03125 C 34.625 -38.050781 35.335938 -34.90625 36.765625 -32.59375 C 38.203125 -30.289062 39.976562 -28.660156 42.09375 -27.703125 C 44.207031 -26.742188 46.257812 -26.265625 48.25 -26.265625 C 51.988281 -26.265625 55.191406 -27.535156 57.859375 -30.078125 C 60.523438 -32.628906 61.859375 -36.097656 61.859375 -40.484375 C 61.859375 -44.378906 61.140625 -47.738281 59.703125 -50.5625 C 58.273438 -53.394531 56.023438 -56.242188 52.953125 -59.109375 C 49.890625 -61.972656 45.890625 -65.394531 40.953125 -69.375 C 34.742188 -74.46875 29.347656 -78.960938 24.765625 -82.859375 C 20.191406 -86.765625 16.429688 -90.648438 13.484375 -94.515625 C 10.546875 -98.378906 8.359375 -102.695312 6.921875 -107.46875 C 5.492188 -112.25 4.78125 -118.0625 4.78125 -124.90625 C 4.78125 -131.113281 5.691406 -136.585938 7.515625 -141.328125 C 9.347656 -146.066406 11.796875 -150.109375 14.859375 -153.453125 C 17.929688 -156.796875 21.335938 -159.519531 25.078125 -161.625 C 28.816406 -163.738281 32.597656 -165.289062 36.421875 -166.28125 C 40.242188 -167.28125 43.828125 -167.78125 47.171875 -167.78125 C 55.453125 -167.78125 62.773438 -165.988281 69.140625 -162.40625 C 75.503906 -158.820312 80.5 -153.765625 84.125 -147.234375 C 87.75 -140.710938 89.5625 -133.03125 89.5625 -124.1875 L 89.5625 -117.390625 C 89.5625 -115.710938 89.257812 -114.535156 88.65625 -113.859375 C 88.0625 -113.179688 86.8125 -112.84375 84.90625 -112.84375 L 63.53125 -112.84375 C 62.019531 -112.84375 61.0625 -113.179688 60.65625 -113.859375 C 60.257812 -114.535156 60.0625 -115.710938 60.0625 -117.390625 Z M 60.0625 -117.390625 " />
      </g>
    </g>
  </g>
  <g fill="#000000" fill-opacity="1">
    <g transform="translate(95.544375, 191.874618)">
      <g>
        <path
          d="M 80.71875 0 L 12.65625 0 C 9.945312 0 8.59375 -1.507812 8.59375 -4.53125 L 8.59375 -160.609375 C 8.59375 -163.710938 9.90625 -165.265625 12.53125 -165.265625 L 36.421875 -165.265625 C 39.046875 -165.265625 40.359375 -163.710938 40.359375 -160.609375 L 40.359375 -28.78125 L 80.71875 -28.78125 C 82.945312 -28.78125 84.0625 -27.425781 84.0625 -24.71875 L 84.0625 -4.296875 C 84.0625 -1.429688 82.945312 0 80.71875 0 Z M 80.71875 0 " />
      </g>
    </g>
  </g>
  <g fill="#000000" fill-opacity="1">
    <g transform="translate(182.236716, 191.874618)">
      <g>
        <path
          d="M 40.359375 -160.609375 L 40.359375 -4.53125 C 40.359375 -1.507812 39.046875 0 36.421875 0 L 12.53125 0 C 9.90625 0 8.59375 -1.507812 8.59375 -4.53125 L 8.59375 -160.609375 C 8.59375 -163.710938 9.90625 -165.265625 12.53125 -165.265625 L 36.421875 -165.265625 C 39.046875 -165.265625 40.359375 -163.710938 40.359375 -160.609375 Z M 40.359375 -160.609375 " />
      </g>
    </g>
  </g>
  <g fill="#000000" fill-opacity="1">
    <g transform="translate(231.317313, 191.874618)">
      <g>
        <path
          d="M 92.90625 0 L 68.65625 0 C 67.46875 0 66.535156 -0.472656 65.859375 -1.421875 C 65.179688 -2.378906 64.84375 -3.5 64.84375 -4.78125 L 64.84375 -124.671875 C 64.84375 -128.410156 63.726562 -131.734375 61.5 -134.640625 C 59.269531 -137.546875 56.164062 -139 52.1875 -139 C 48.125 -139 44.976562 -137.546875 42.75 -134.640625 C 40.519531 -131.734375 39.40625 -128.410156 39.40625 -124.671875 L 39.40625 -4.65625 C 39.40625 -3.382812 39.144531 -2.289062 38.625 -1.375 C 38.113281 -0.457031 37.179688 0 35.828125 0 L 10.625 0 C 9.75 0 9.007812 -0.457031 8.40625 -1.375 C 7.8125 -2.289062 7.515625 -3.382812 7.515625 -4.65625 L 7.515625 -126.453125 C 7.515625 -132.191406 8.707031 -137.566406 11.09375 -142.578125 C 13.488281 -147.597656 16.734375 -152 20.828125 -155.78125 C 24.929688 -159.5625 29.671875 -162.523438 35.046875 -164.671875 C 40.421875 -166.816406 46.09375 -167.890625 52.0625 -167.890625 C 58.03125 -167.890625 63.703125 -166.816406 69.078125 -164.671875 C 74.453125 -162.523438 79.207031 -159.5625 83.34375 -155.78125 C 87.488281 -152 90.753906 -147.597656 93.140625 -142.578125 C 95.523438 -137.566406 96.71875 -132.191406 96.71875 -126.453125 L 96.71875 -4.78125 C 96.71875 -3.582031 96.421875 -2.484375 95.828125 -1.484375 C 95.234375 -0.492188 94.257812 0 92.90625 0 Z M 92.90625 0 " />
      </g>
    </g>
  </g>
  <g fill="#000000" fill-opacity="1">
    <g transform="translate(335.565767, 191.874618)">
      <g>
        <path
          d="M 77.625 -83 C 84.46875 -77.738281 89.800781 -71.085938 93.625 -63.046875 C 97.445312 -55.003906 99.359375 -45.691406 99.359375 -35.109375 L 99.359375 -5.015625 C 99.359375 -3.984375 99.035156 -2.890625 98.390625 -1.734375 C 97.753906 -0.578125 96.640625 0 95.046875 0 L 72.84375 0 C 71.488281 0 70.253906 -0.457031 69.140625 -1.375 C 68.023438 -2.289062 67.46875 -3.625 67.46875 -5.375 L 67.46875 -31.40625 C 67.46875 -38.332031 66.671875 -44.421875 65.078125 -49.671875 C 63.484375 -54.929688 60.71875 -59.09375 56.78125 -62.15625 C 52.84375 -65.21875 47.367188 -66.910156 40.359375 -67.234375 L 40.359375 -4.53125 C 40.359375 -1.507812 39.085938 0 36.546875 0 L 12.65625 0 C 9.945312 0 8.59375 -1.507812 8.59375 -4.53125 L 8.59375 -160.609375 C 8.59375 -163.710938 9.945312 -165.265625 12.65625 -165.265625 L 36.421875 -165.265625 C 39.046875 -165.265625 40.359375 -163.710938 40.359375 -160.609375 L 40.359375 -97.203125 C 46.972656 -97.765625 52.109375 -99.597656 55.765625 -102.703125 C 59.429688 -105.804688 62.019531 -109.960938 63.53125 -115.171875 C 65.039062 -120.390625 65.796875 -126.34375 65.796875 -133.03125 L 65.796875 -159.78125 C 65.796875 -161.613281 66.375 -162.984375 67.53125 -163.890625 C 68.6875 -164.804688 69.941406 -165.265625 71.296875 -165.265625 L 93.375 -165.265625 C 94.96875 -165.265625 96.082031 -164.6875 96.71875 -163.53125 C 97.363281 -162.382812 97.6875 -161.253906 97.6875 -160.140625 L 97.6875 -129.453125 C 97.6875 -119.335938 95.929688 -110.378906 92.421875 -102.578125 C 88.921875 -94.773438 83.988281 -88.25 77.625 -83 Z M 77.625 -83 " />
      </g>
    </g>
  </g>
</svg>